<svg xmlns="http://www.w3.org/2000/svg" viewBox="0 0 160 120" fill="none">
  <rect width="160" height="120" rx="22" fill="#0C292D"/>
  <circle cx="80" cy="57" r="38" fill="#00E5BE" fill-opacity=".1"/>
  <path d="M46 63c0-4 3-7 7-7h54c4 0 7 3 7 7v24c0 4-3 7-7 7H53c-4 0-7-3-7-7V63Z" stroke="#55DCC8" stroke-width="3"/>
  <path d="m53 57 8-15h48l8 15M62 71h36" stroke="#55DCC8" stroke-width="3" stroke-linecap="round" stroke-linejoin="round"/>
  <circle cx="106" cy="35" r="4" fill="#F2C879"/>
  <path d="m42 35 3 5 6 1-4 4 1 6-6-3-5 3 1-6-4-4 6-1 2-5Z" fill="#00E5BE"/>
</svg>
